- 
http://www.Speed.Cd 
       
http://www.Speed.Cd      fast  and The Hottest Private Tracker on the net

(((--Submit for invite!!--)))

Please Seed back to make the speed Faster!!!

------------------nfo--------------------------
-








































          
          
              
              
                    
                    
                    
                    

Pirates.of.the.Caribbean.On.Stranger.Tides.2011.DVDRip.Xvid.AC3-SiC

Poster:
[img]http://img822.imageshack.us/img822/5351/11491476downloadpirates.jpg[/img]

IMDB Link:
http://www.imdb.com/title/tt1298650/

Description:
Jack Sparrow and Barbossa embark on a quest to find the elusive fountain of youth,
only to discover that Blackbeard and his daughter are after it too.
 
MediaInfo:
General
Complete name                    : Pirates.of.the.Caribbean.On.Stranger.Tides.2011.DVDRip.Xvid.AC3-SiC.avi
Format                           : AVI
Format/Info                      : Audio Video Interleave
File size                        : 1.39 GiB
Duration                         : 2h 16mn
Overall bit rate                 : 1 463 Kbps

Video
ID                               : 0
Format                           : MPEG-4 Visual
Format profile                   : Advanced Simple@L5
Format settings, BVOP            : Yes
Format settings, QPel            : No
Format settings, GMC             : No warppoints
Format settings, Matrix          : Default (H.263)
Muxing mode                      : Packed bitstream
Codec ID                         : XVID
Codec ID/Hint                    : XviD
Duration                         : 2h 16mn
Bit rate                         : 1 071 Kbps
Width                            : 720 pixels
Height                           : 304 pixels
Display aspect ratio             : 2.35:1
Frame rate                       : 23.976 fps
Resolution                       : 8 bits
Colorimetry                      : 4:2:0
Scan type                        : Progressive
Bits/(Pixel*Frame)               : 0.204
Stream size                      : 1.02 GiB (73%)
Writing library                  : XviD 64

Audio
ID                               : 1
Format                           : AC-3
Format/Info                      : Audio Coding 3
Format_Settings_ModeExtension    : CM (complete main)
Codec ID                         : 2000
Duration                         : 2h 16mn
Bit rate mode                    : Constant
Bit rate                         : 384 Kbps
Channel(s)                       : 6 channels
Channel positions                : Front: L C R, Side: L R, LFE
Sampling rate                    : 48.0 KHz
Stream size                      : 375 MiB (26%)
Alignment                        : Aligned on interleaves
Interleave, duration             : 64 ms (1.53 video frames)
Interleave, preload duration     : 192 ms
Title                            : 6ch 384Kbps DELAY 52ms English

Screenshots:
[img]http://img803.imageshack.us/img803/3089/piratesofthecaribbeanonq.png[/img]
[img]http://img88.imageshack.us/img88/6240/piratesofthecaribbeanont.png[/img]
[img]http://img824.imageshack.us/img824/7996/piratesofthecaribbeanon.png[/img]
[img]http://img829.imageshack.us/img829/4171/piratesofthecaribbeanonn.png[/img]
[img]http://img714.imageshack.us/img714/3089/piratesofthecaribbeanonq.png[/img]
[img]http://img98.imageshack.us/img98/7897/vlcsnap2011081908h08m17.png[/img]

Note :   N/A 

Source : DVDR-R4 

Encoder: Bezauk

Enjoy!

Respects to CaptainHomey, Cyanide, CM8, Rx, THC, ELEKTRI4KA, 
Killerhz, PA, YeFsTe, BoxSlots, MrRep and everyone in the struggle...